<svg xmlns="http://www.w3.org/2000/svg" xmlns:xlink="http://www.w3.org/1999/xlink" width="1024" zoomAndPan="magnify" viewBox="0 0 768 767.999994" height="1024" preserveAspectRatio="xMidYMid meet" version="1.0"><defs><clipPath id="8f67aaf2d8"><path d="M 255.457031 93.355469 L 528.851562 93.355469 L 528.851562 366.75 L 255.457031 366.75 Z M 255.457031 93.355469 " clip-rule="nonzero"/></clipPath><clipPath id="22a9f5c0b5"><path d="M 392.15625 93.355469 C 316.65625 93.355469 255.457031 154.558594 255.457031 230.054688 C 255.457031 305.550781 316.65625 366.75 392.15625 366.75 C 467.652344 366.75 528.851562 305.550781 528.851562 230.054688 C 528.851562 154.558594 467.652344 93.355469 392.15625 93.355469 Z M 392.15625 93.355469 " clip-rule="nonzero"/></clipPath><clipPath id="84dbf32d24"><path d="M 0.457031 0.355469 L 273.851562 0.355469 L 273.851562 273.75 L 0.457031 273.75 Z M 0.457031 0.355469 " clip-rule="nonzero"/></clipPath><clipPath id="34f1c0353d"><path d="M 137.15625 0.355469 C 61.65625 0.355469 0.457031 61.558594 0.457031 137.054688 C 0.457031 212.550781 61.65625 273.75 137.15625 273.75 C 212.652344 273.75 273.851562 212.550781 273.851562 137.054688 C 273.851562 61.558594 212.652344 0.355469 137.15625 0.355469 Z M 137.15625 0.355469 " clip-rule="nonzero"/></clipPath><clipPath id="f792f3bbbd"><rect x="0" width="274" y="0" height="274"/></clipPath><clipPath id="1da859eb28"><path d="M 157.054688 519.355469 L 316.453125 519.355469 L 316.453125 681.863281 L 157.054688 681.863281 Z M 157.054688 519.355469 " clip-rule="nonzero"/></clipPath><clipPath id="8859b0d170"><path d="M 236.753906 519.355469 C 192.738281 519.355469 157.054688 555.699219 157.054688 600.53125 C 157.054688 645.363281 192.738281 681.703125 236.753906 681.703125 C 280.769531 681.703125 316.453125 645.363281 316.453125 600.53125 C 316.453125 555.699219 280.769531 519.355469 236.753906 519.355469 Z M 236.753906 519.355469 " clip-rule="nonzero"/></clipPath><clipPath id="7578972521"><path d="M 0.0546875 0.355469 L 159.453125 0.355469 L 159.453125 162.839844 L 0.0546875 162.839844 Z M 0.0546875 0.355469 " clip-rule="nonzero"/></clipPath><clipPath id="435a15cba8"><path d="M 79.753906 0.355469 C 35.738281 0.355469 0.0546875 36.699219 0.0546875 81.53125 C 0.0546875 126.363281 35.738281 162.703125 79.753906 162.703125 C 123.769531 162.703125 159.453125 126.363281 159.453125 81.53125 C 159.453125 36.699219 123.769531 0.355469 79.753906 0.355469 Z M 79.753906 0.355469 " clip-rule="nonzero"/></clipPath><clipPath id="18485fb522"><rect x="0" width="160" y="0" height="163"/></clipPath><clipPath id="c928f6fe7b"><path d="M 462.765625 519.355469 L 622.164062 519.355469 L 622.164062 681.863281 L 462.765625 681.863281 Z M 462.765625 519.355469 " clip-rule="nonzero"/></clipPath><clipPath id="aeb9b1e4d5"><path d="M 542.464844 519.355469 C 498.449219 519.355469 462.765625 555.699219 462.765625 600.53125 C 462.765625 645.363281 498.449219 681.703125 542.464844 681.703125 C 586.480469 681.703125 622.164062 645.363281 622.164062 600.53125 C 622.164062 555.699219 586.480469 519.355469 542.464844 519.355469 Z M 542.464844 519.355469 " clip-rule="nonzero"/></clipPath><clipPath id="ae3e3f3f0c"><path d="M 0.765625 0.355469 L 160.164062 0.355469 L 160.164062 162.839844 L 0.765625 162.839844 Z M 0.765625 0.355469 " clip-rule="nonzero"/></clipPath><clipPath id="50cadbae04"><path d="M 80.464844 0.355469 C 36.449219 0.355469 0.765625 36.699219 0.765625 81.53125 C 0.765625 126.363281 36.449219 162.703125 80.464844 162.703125 C 124.480469 162.703125 160.164062 126.363281 160.164062 81.53125 C 160.164062 36.699219 124.480469 0.355469 80.464844 0.355469 Z M 80.464844 0.355469 " clip-rule="nonzero"/></clipPath><clipPath id="367313f704"><rect x="0" width="161" y="0" height="163"/></clipPath><clipPath id="56a665ebf6"><path d="M 415.96875 438.179688 L 575.363281 438.179688 L 575.363281 600.691406 L 415.96875 600.691406 Z M 415.96875 438.179688 " clip-rule="nonzero"/></clipPath><clipPath id="76a3fe7456"><path d="M 495.664062 438.179688 C 451.648438 438.179688 415.96875 474.523438 415.96875 519.355469 C 415.96875 564.1875 451.648438 600.53125 495.664062 600.53125 C 539.679688 600.53125 575.363281 564.1875 575.363281 519.355469 C 575.363281 474.523438 539.679688 438.179688 495.664062 438.179688 Z M 495.664062 438.179688 " clip-rule="nonzero"/></clipPath><clipPath id="3c0399e922"><path d="M 0.96875 0.179688 L 160.363281 0.179688 L 160.363281 162.691406 L 0.96875 162.691406 Z M 0.96875 0.179688 " clip-rule="nonzero"/></clipPath><clipPath id="6d060dde25"><path d="M 80.664062 0.179688 C 36.648438 0.179688 0.96875 36.523438 0.96875 81.355469 C 0.96875 126.1875 36.648438 162.53125 80.664062 162.53125 C 124.679688 162.53125 160.363281 126.1875 160.363281 81.355469 C 160.363281 36.523438 124.679688 0.179688 80.664062 0.179688 Z M 80.664062 0.179688 " clip-rule="nonzero"/></clipPath><clipPath id="1277d85b9f"><rect x="0" width="161" y="0" height="163"/></clipPath><clipPath id="c02e87fec1"><path d="M 189.167969 450.605469 L 348.5625 450.605469 L 348.5625 613 L 189.167969 613 Z M 189.167969 450.605469 " clip-rule="nonzero"/></clipPath><clipPath id="8a4bc5d15a"><path d="M 268.867188 450.605469 C 224.847656 450.605469 189.167969 486.949219 189.167969 531.78125 C 189.167969 576.613281 224.847656 612.957031 268.867188 612.957031 C 312.882812 612.957031 348.5625 576.613281 348.5625 531.78125 C 348.5625 486.949219 312.882812 450.605469 268.867188 450.605469 Z M 268.867188 450.605469 " clip-rule="nonzero"/></clipPath><clipPath id="a6dcdabcc0"><path d="M 0.167969 0.605469 L 159.5625 0.605469 L 159.5625 162.960938 L 0.167969 162.960938 Z M 0.167969 0.605469 " clip-rule="nonzero"/></clipPath><clipPath id="981e8ad76f"><path d="M 79.867188 0.605469 C 35.847656 0.605469 0.167969 36.949219 0.167969 81.78125 C 0.167969 126.613281 35.847656 162.957031 79.867188 162.957031 C 123.882812 162.957031 159.5625 126.613281 159.5625 81.78125 C 159.5625 36.949219 123.882812 0.605469 79.867188 0.605469 Z M 79.867188 0.605469 " clip-rule="nonzero"/></clipPath><clipPath id="8726cbf29b"><rect x="0" width="160" y="0" height="163"/></clipPath><clipPath id="2866145911"><path d="M 256.570312 423.003906 L 437.335938 423.003906 L 437.335938 607.300781 L 256.570312 607.300781 Z M 256.570312 423.003906 " clip-rule="nonzero"/></clipPath><clipPath id="32d97ecb5e"><path d="M 346.953125 423.003906 C 297.035156 423.003906 256.570312 464.222656 256.570312 515.0625 C 256.570312 565.902344 297.035156 607.117188 346.953125 607.117188 C 396.871094 607.117188 437.335938 565.902344 437.335938 515.0625 C 437.335938 464.222656 396.871094 423.003906 346.953125 423.003906 Z M 346.953125 423.003906 " clip-rule="nonzero"/></clipPath><clipPath id="2f7cd601ba"><path d="M 0.570312 0.00390625 L 181.335938 0.00390625 L 181.335938 184.199219 L 0.570312 184.199219 Z M 0.570312 0.00390625 " clip-rule="nonzero"/></clipPath><clipPath id="5c064c8ed1"><path d="M 90.953125 0.00390625 C 41.035156 0.00390625 0.570312 41.222656 0.570312 92.0625 C 0.570312 142.902344 41.035156 184.117188 90.953125 184.117188 C 140.871094 184.117188 181.335938 142.902344 181.335938 92.0625 C 181.335938 41.222656 140.871094 0.00390625 90.953125 0.00390625 Z M 90.953125 0.00390625 " clip-rule="nonzero"/></clipPath><clipPath id="f610a0e5cb"><rect x="0" width="182" y="0" height="185"/></clipPath><clipPath id="d75e17f7ef"><path d="M 346.953125 427.300781 L 527.714844 427.300781 L 527.714844 611.59375 L 346.953125 611.59375 Z M 346.953125 427.300781 " clip-rule="nonzero"/></clipPath><clipPath id="76d143187d"><path d="M 437.335938 427.300781 C 387.417969 427.300781 346.953125 468.515625 346.953125 519.355469 C 346.953125 570.195312 387.417969 611.410156 437.335938 611.410156 C 487.25 611.410156 527.714844 570.195312 527.714844 519.355469 C 527.714844 468.515625 487.25 427.300781 437.335938 427.300781 Z M 437.335938 427.300781 " clip-rule="nonzero"/></clipPath><clipPath id="39c45724ea"><path d="M 0.953125 0.300781 L 181.714844 0.300781 L 181.714844 184.519531 L 0.953125 184.519531 Z M 0.953125 0.300781 " clip-rule="nonzero"/></clipPath><clipPath id="6523fc82fa"><path d="M 91.335938 0.300781 C 41.417969 0.300781 0.953125 41.515625 0.953125 92.355469 C 0.953125 143.195312 41.417969 184.410156 91.335938 184.410156 C 141.25 184.410156 181.714844 143.195312 181.714844 92.355469 C 181.714844 41.515625 141.25 0.300781 91.335938 0.300781 Z M 91.335938 0.300781 " clip-rule="nonzero"/></clipPath><clipPath id="46382f7686"><rect x="0" width="182" y="0" height="185"/></clipPath><clipPath id="13b2e7da43"><path d="M 244.132812 485.59375 L 424.898438 485.59375 L 424.898438 669.886719 L 244.132812 669.886719 Z M 244.132812 485.59375 " clip-rule="nonzero"/></clipPath><clipPath id="7027922fd5"><path d="M 334.515625 485.59375 C 284.601562 485.59375 244.132812 526.808594 244.132812 577.648438 C 244.132812 628.488281 284.601562 669.703125 334.515625 669.703125 C 384.433594 669.703125 424.898438 628.488281 424.898438 577.648438 C 424.898438 526.808594 384.433594 485.59375 334.515625 485.59375 Z M 334.515625 485.59375 " clip-rule="nonzero"/></clipPath><clipPath id="c395b2b5c1"><path d="M 0.132812 0.59375 L 180.898438 0.59375 L 180.898438 184.839844 L 0.132812 184.839844 Z M 0.132812 0.59375 " clip-rule="nonzero"/></clipPath><clipPath id="5db0c4c386"><path d="M 90.515625 0.59375 C 40.601562 0.59375 0.132812 41.808594 0.132812 92.648438 C 0.132812 143.488281 40.601562 184.703125 90.515625 184.703125 C 140.433594 184.703125 180.898438 143.488281 180.898438 92.648438 C 180.898438 41.808594 140.433594 0.59375 90.515625 0.59375 Z M 90.515625 0.59375 " clip-rule="nonzero"/></clipPath><clipPath id="f9c3dfeea3"><rect x="0" width="181" y="0" height="185"/></clipPath><clipPath id="a909cb22a6"><path d="M 346.953125 485.59375 L 527.714844 485.59375 L 527.714844 669.886719 L 346.953125 669.886719 Z M 346.953125 485.59375 " clip-rule="nonzero"/></clipPath><clipPath id="265aafedfc"><path d="M 437.335938 485.59375 C 387.417969 485.59375 346.953125 526.808594 346.953125 577.648438 C 346.953125 628.488281 387.417969 669.703125 437.335938 669.703125 C 487.25 669.703125 527.714844 628.488281 527.714844 577.648438 C 527.714844 526.808594 487.25 485.59375 437.335938 485.59375 Z M 437.335938 485.59375 " clip-rule="nonzero"/></clipPath><clipPath id="7c20af8e46"><path d="M 0.953125 0.59375 L 181.714844 0.59375 L 181.714844 184.839844 L 0.953125 184.839844 Z M 0.953125 0.59375 " clip-rule="nonzero"/></clipPath><clipPath id="9dfbc9f85f"><path d="M 91.335938 0.59375 C 41.417969 0.59375 0.953125 41.808594 0.953125 92.648438 C 0.953125 143.488281 41.417969 184.703125 91.335938 184.703125 C 141.25 184.703125 181.714844 143.488281 181.714844 92.648438 C 181.714844 41.808594 141.25 0.59375 91.335938 0.59375 Z M 91.335938 0.59375 " clip-rule="nonzero"/></clipPath><clipPath id="02b88ee8af"><rect x="0" width="182" y="0" height="185"/></clipPath><clipPath id="0331e5f67f"><path d="M 145.835938 413 L 622.085938 413 L 622.085938 681.796875 L 145.835938 681.796875 Z M 145.835938 413 " clip-rule="nonzero"/></clipPath><clipPath id="935274017d"><path d="M 235 86.296875 L 533 86.296875 L 533 384 L 235 384 Z M 235 86.296875 " clip-rule="nonzero"/></clipPath></defs><g clip-path="url(#8f67aaf2d8)"><g clip-path="url(#22a9f5c0b5)"><g transform="matrix(1, 0, 0, 1, 255, 93)"><g clip-path="url(#f792f3bbbd)"><g clip-path="url(#84dbf32d24)"><g clip-path="url(#34f1c0353d)"><path fill="#ffffff" d="M 0.457031 0.355469 L 273.851562 0.355469 L 273.851562 273.75 L 0.457031 273.75 Z M 0.457031 0.355469 " fill-opacity="1" fill-rule="nonzero"/></g></g></g></g></g></g><g clip-path="url(#1da859eb28)"><g clip-path="url(#8859b0d170)"><g transform="matrix(1, 0, 0, 1, 157, 519)"><g clip-path="url(#18485fb522)"><g clip-path="url(#7578972521)"><g clip-path="url(#435a15cba8)"><path fill="#ffffff" d="M 0.0546875 0.355469 L 159.453125 0.355469 L 159.453125 162.863281 L 0.0546875 162.863281 Z M 0.0546875 0.355469 " fill-opacity="1" fill-rule="nonzero"/></g></g></g></g></g></g><g clip-path="url(#c928f6fe7b)"><g clip-path="url(#aeb9b1e4d5)"><g transform="matrix(1, 0, 0, 1, 462, 519)"><g clip-path="url(#367313f704)"><g clip-path="url(#ae3e3f3f0c)"><g clip-path="url(#50cadbae04)"><path fill="#ffffff" d="M 0.765625 0.355469 L 160.164062 0.355469 L 160.164062 162.863281 L 0.765625 162.863281 Z M 0.765625 0.355469 " fill-opacity="1" fill-rule="nonzero"/></g></g></g></g></g></g><g clip-path="url(#56a665ebf6)"><g clip-path="url(#76a3fe7456)"><g transform="matrix(1, 0, 0, 1, 415, 438)"><g clip-path="url(#1277d85b9f)"><g clip-path="url(#3c0399e922)"><g clip-path="url(#6d060dde25)"><path fill="#ffffff" d="M 0.96875 0.179688 L 160.363281 0.179688 L 160.363281 162.691406 L 0.96875 162.691406 Z M 0.96875 0.179688 " fill-opacity="1" fill-rule="nonzero"/></g></g></g></g></g></g><g clip-path="url(#c02e87fec1)"><g clip-path="url(#8a4bc5d15a)"><g transform="matrix(1, 0, 0, 1, 189, 450)"><g clip-path="url(#8726cbf29b)"><g clip-path="url(#a6dcdabcc0)"><g clip-path="url(#981e8ad76f)"><path fill="#ffffff" d="M 0.167969 0.605469 L 159.5625 0.605469 L 159.5625 163.117188 L 0.167969 163.117188 Z M 0.167969 0.605469 " fill-opacity="1" fill-rule="nonzero"/></g></g></g></g></g></g><g clip-path="url(#2866145911)"><g clip-path="url(#32d97ecb5e)"><g transform="matrix(1, 0, 0, 1, 256, 423)"><g clip-path="url(#f610a0e5cb)"><g clip-path="url(#2f7cd601ba)"><g clip-path="url(#5c064c8ed1)"><path fill="#ffffff" d="M 0.570312 0.00390625 L 181.335938 0.00390625 L 181.335938 184.300781 L 0.570312 184.300781 Z M 0.570312 0.00390625 " fill-opacity="1" fill-rule="nonzero"/></g></g></g></g></g></g><g clip-path="url(#d75e17f7ef)"><g clip-path="url(#76d143187d)"><g transform="matrix(1, 0, 0, 1, 346, 427)"><g clip-path="url(#46382f7686)"><g clip-path="url(#39c45724ea)"><g clip-path="url(#6523fc82fa)"><path fill="#ffffff" d="M 0.953125 0.300781 L 181.714844 0.300781 L 181.714844 184.59375 L 0.953125 184.59375 Z M 0.953125 0.300781 " fill-opacity="1" fill-rule="nonzero"/></g></g></g></g></g></g><g clip-path="url(#13b2e7da43)"><g clip-path="url(#7027922fd5)"><g transform="matrix(1, 0, 0, 1, 244, 485)"><g clip-path="url(#f9c3dfeea3)"><g clip-path="url(#c395b2b5c1)"><g clip-path="url(#5db0c4c386)"><path fill="#ffffff" d="M 0.132812 0.59375 L 180.898438 0.59375 L 180.898438 184.886719 L 0.132812 184.886719 Z M 0.132812 0.59375 " fill-opacity="1" fill-rule="nonzero"/></g></g></g></g></g></g><g clip-path="url(#a909cb22a6)"><g clip-path="url(#265aafedfc)"><g transform="matrix(1, 0, 0, 1, 346, 485)"><g clip-path="url(#02b88ee8af)"><g clip-path="url(#7c20af8e46)"><g clip-path="url(#9dfbc9f85f)"><path fill="#ffffff" d="M 0.953125 0.59375 L 181.714844 0.59375 L 181.714844 184.886719 L 0.953125 184.886719 Z M 0.953125 0.59375 " fill-opacity="1" fill-rule="nonzero"/></g></g></g></g></g></g><g clip-path="url(#0331e5f67f)"><path fill="#ffffff" d="M 428.652344 413.769531 L 339.339844 413.769531 C 336.175781 413.773438 333.011719 413.851562 329.851562 414.011719 C 326.6875 414.171875 323.53125 414.40625 320.382812 414.71875 C 317.230469 415.035156 314.089844 415.425781 310.960938 415.890625 C 307.828125 416.359375 304.710938 416.902344 301.605469 417.523438 C 298.5 418.144531 295.414062 418.839844 292.34375 419.613281 C 289.273438 420.382812 286.222656 421.230469 283.195312 422.152344 C 280.164062 423.070312 277.160156 424.066406 274.179688 425.136719 C 271.203125 426.203125 268.25 427.34375 265.324219 428.558594 C 262.402344 429.769531 259.507812 431.054688 256.648438 432.410156 C 253.785156 433.765625 250.960938 435.191406 248.167969 436.683594 C 245.375 438.175781 242.625 439.738281 239.910156 441.367188 C 237.195312 442.996094 234.519531 444.6875 231.886719 446.449219 C 229.257812 448.207031 226.667969 450.03125 224.128906 451.917969 C 221.585938 453.804688 219.089844 455.75 216.644531 457.761719 C 214.195312 459.769531 211.800781 461.835938 209.453125 463.964844 C 207.109375 466.089844 204.816406 468.273438 202.578125 470.511719 C 200.339844 472.75 198.15625 475.039062 196.03125 477.386719 C 193.90625 479.730469 191.835938 482.128906 189.828125 484.574219 C 187.820312 487.023438 185.871094 489.515625 183.984375 492.058594 C 182.097656 494.601562 180.277344 497.1875 178.515625 499.820312 C 176.757812 502.453125 175.0625 505.125 173.433594 507.839844 C 171.804688 510.554688 170.246094 513.308594 168.75 516.101562 C 167.257812 518.890625 165.832031 521.71875 164.476562 524.578125 C 163.121094 527.441406 161.839844 530.332031 160.625 533.257812 C 159.414062 536.179688 158.273438 539.132812 157.203125 542.113281 C 156.132812 545.09375 155.140625 548.097656 154.21875 551.128906 C 153.296875 554.15625 152.449219 557.207031 151.679688 560.277344 C 150.90625 563.347656 150.210938 566.433594 149.589844 569.539062 C 148.972656 572.644531 148.425781 575.761719 147.960938 578.890625 C 147.492188 582.023438 147.101562 585.164062 146.789062 588.3125 C 146.476562 591.464844 146.238281 594.621094 146.078125 597.78125 C 145.921875 600.945312 145.839844 604.109375 145.835938 607.273438 L 145.835938 666.8125 C 145.835938 667.789062 145.929688 668.757812 146.121094 669.71875 C 146.3125 670.675781 146.59375 671.605469 146.96875 672.511719 C 147.34375 673.414062 147.800781 674.269531 148.34375 675.082031 C 148.886719 675.894531 149.503906 676.648438 150.195312 677.339844 C 150.886719 678.03125 151.640625 678.648438 152.453125 679.191406 C 153.265625 679.734375 154.121094 680.191406 155.023438 680.566406 C 155.929688 680.941406 156.859375 681.222656 157.816406 681.414062 C 158.777344 681.601562 159.742188 681.699219 160.722656 681.699219 L 607.273438 681.699219 C 608.25 681.699219 609.21875 681.601562 610.175781 681.414062 C 611.132812 681.222656 612.066406 680.941406 612.96875 680.566406 C 613.871094 680.191406 614.730469 679.734375 615.542969 679.191406 C 616.355469 678.648438 617.105469 678.03125 617.796875 677.339844 C 618.488281 676.648438 619.105469 675.894531 619.648438 675.082031 C 620.191406 674.269531 620.648438 673.414062 621.023438 672.511719 C 621.398438 671.605469 621.679688 670.675781 621.871094 669.71875 C 622.0625 668.757812 622.15625 667.789062 622.15625 666.8125 L 622.15625 607.273438 C 622.152344 604.109375 622.070312 600.945312 621.914062 597.78125 C 621.753906 594.621094 621.519531 591.464844 621.203125 588.3125 C 620.890625 585.164062 620.5 582.023438 620.035156 578.890625 C 619.566406 575.761719 619.023438 572.644531 618.402344 569.539062 C 617.78125 566.433594 617.085938 563.347656 616.3125 560.277344 C 615.542969 557.207031 614.695312 554.15625 613.773438 551.128906 C 612.851562 548.097656 611.859375 545.09375 610.789062 542.113281 C 609.722656 539.132812 608.582031 536.179688 607.367188 533.257812 C 606.152344 530.332031 604.871094 527.441406 603.515625 524.578125 C 602.160156 521.71875 600.734375 518.890625 599.242188 516.101562 C 597.75 513.308594 596.1875 510.554688 594.558594 507.839844 C 592.929688 505.125 591.234375 502.453125 589.476562 499.820312 C 587.71875 497.1875 585.894531 494.601562 584.007812 492.058594 C 582.121094 489.515625 580.171875 487.023438 578.164062 484.574219 C 576.15625 482.128906 574.089844 479.730469 571.960938 477.386719 C 569.835938 475.039062 567.652344 472.75 565.414062 470.511719 C 563.175781 468.273438 560.882812 466.089844 558.539062 463.964844 C 556.191406 461.835938 553.796875 459.769531 551.351562 457.761719 C 548.902344 455.75 546.410156 453.804688 543.867188 451.917969 C 541.324219 450.03125 538.734375 448.207031 536.105469 446.449219 C 533.472656 444.6875 530.800781 442.996094 528.085938 441.367188 C 525.371094 439.738281 522.617188 438.175781 519.824219 436.683594 C 517.035156 435.191406 514.207031 433.765625 511.347656 432.410156 C 508.484375 431.054688 505.59375 429.769531 502.667969 428.558594 C 499.742188 427.34375 496.792969 426.203125 493.8125 425.136719 C 490.832031 424.066406 487.828125 423.070312 484.796875 422.152344 C 481.769531 421.230469 478.71875 420.382812 475.648438 419.613281 C 472.578125 418.839844 469.492188 418.144531 466.386719 417.523438 C 463.28125 416.902344 460.164062 416.359375 457.035156 415.890625 C 453.902344 415.425781 450.761719 415.035156 447.609375 414.71875 C 444.460938 414.40625 441.304688 414.171875 438.144531 414.011719 C 434.980469 413.851562 431.816406 413.773438 428.652344 413.769531 Z M 592.386719 651.929688 L 175.605469 651.929688 L 175.605469 607.273438 C 175.609375 604.59375 175.679688 601.917969 175.8125 599.242188 C 175.949219 596.566406 176.148438 593.898438 176.414062 591.230469 C 176.679688 588.566406 177.007812 585.90625 177.40625 583.257812 C 177.800781 580.609375 178.261719 577.972656 178.785156 575.34375 C 179.3125 572.71875 179.902344 570.105469 180.554688 567.507812 C 181.207031 564.910156 181.921875 562.328125 182.703125 559.765625 C 183.480469 557.203125 184.324219 554.660156 185.226562 552.140625 C 186.132812 549.617188 187.097656 547.121094 188.125 544.648438 C 189.152344 542.171875 190.238281 539.726562 191.382812 537.304688 C 192.53125 534.882812 193.738281 532.492188 195 530.128906 C 196.265625 527.769531 197.585938 525.4375 198.964844 523.140625 C 200.339844 520.84375 201.773438 518.582031 203.265625 516.355469 C 204.753906 514.128906 206.296875 511.941406 207.890625 509.789062 C 209.488281 507.636719 211.136719 505.527344 212.835938 503.457031 C 214.535156 501.386719 216.285156 499.359375 218.082031 497.375 C 219.882812 495.390625 221.730469 493.449219 223.625 491.554688 C 225.515625 489.660156 227.457031 487.816406 229.441406 486.015625 C 231.425781 484.214844 233.453125 482.46875 235.523438 480.765625 C 237.59375 479.066406 239.707031 477.417969 241.855469 475.824219 C 244.007812 474.226562 246.195312 472.683594 248.421875 471.195312 C 250.648438 469.707031 252.914062 468.273438 255.210938 466.894531 C 257.507812 465.515625 259.835938 464.195312 262.199219 462.933594 C 264.558594 461.667969 266.949219 460.464844 269.371094 459.316406 C 271.792969 458.171875 274.242188 457.082031 276.714844 456.058594 C 279.1875 455.03125 281.6875 454.066406 284.207031 453.160156 C 286.730469 452.257812 289.273438 451.414062 291.835938 450.636719 C 294.398438 449.855469 296.976562 449.140625 299.574219 448.484375 C 302.171875 447.832031 304.785156 447.242188 307.414062 446.71875 C 310.039062 446.195312 312.675781 445.734375 315.328125 445.335938 C 317.976562 444.941406 320.632812 444.609375 323.300781 444.34375 C 325.964844 444.078125 328.636719 443.878906 331.308594 443.746094 C 333.984375 443.609375 336.664062 443.542969 339.339844 443.539062 L 428.652344 443.539062 C 431.332031 443.542969 434.007812 443.609375 436.683594 443.746094 C 439.359375 443.878906 442.027344 444.078125 444.695312 444.34375 C 447.359375 444.609375 450.015625 444.941406 452.667969 445.335938 C 455.316406 445.734375 457.953125 446.195312 460.582031 446.71875 C 463.207031 447.242188 465.820312 447.832031 468.417969 448.484375 C 471.015625 449.140625 473.59375 449.855469 476.160156 450.636719 C 478.722656 451.414062 481.261719 452.257812 483.785156 453.160156 C 486.304688 454.066406 488.804688 455.03125 491.277344 456.058594 C 493.753906 457.082031 496.199219 458.171875 498.621094 459.316406 C 501.042969 460.464844 503.433594 461.667969 505.796875 462.933594 C 508.15625 464.195312 510.488281 465.515625 512.785156 466.894531 C 515.082031 468.273438 517.34375 469.707031 519.570312 471.195312 C 521.796875 472.683594 523.984375 474.226562 526.136719 475.824219 C 528.289062 477.417969 530.398438 479.066406 532.46875 480.765625 C 534.539062 482.46875 536.566406 484.214844 538.550781 486.015625 C 540.535156 487.816406 542.476562 489.660156 544.371094 491.554688 C 546.265625 493.449219 548.109375 495.390625 549.910156 497.375 C 551.707031 499.359375 553.457031 501.386719 555.15625 503.457031 C 556.855469 505.527344 558.503906 507.636719 560.101562 509.789062 C 561.699219 511.941406 563.242188 514.128906 564.730469 516.355469 C 566.21875 518.582031 567.652344 520.84375 569.03125 523.140625 C 570.40625 525.4375 571.726562 527.769531 572.992188 530.128906 C 574.257812 532.492188 575.460938 534.882812 576.609375 537.304688 C 577.753906 539.726562 578.839844 542.171875 579.867188 544.648438 C 580.894531 547.121094 581.859375 549.617188 582.765625 552.140625 C 583.667969 554.660156 584.511719 557.203125 585.289062 559.765625 C 586.070312 562.328125 586.785156 564.910156 587.4375 567.507812 C 588.09375 570.105469 588.679688 572.71875 589.207031 575.34375 C 589.730469 577.972656 590.191406 580.609375 590.585938 583.257812 C 590.984375 585.90625 591.3125 588.566406 591.578125 591.230469 C 591.84375 593.898438 592.046875 596.566406 592.179688 599.242188 C 592.3125 601.917969 592.382812 604.59375 592.386719 607.273438 Z M 592.386719 651.929688 " fill-opacity="1" fill-rule="nonzero"/></g><g clip-path="url(#935274017d)"><path fill="#ffffff" d="M 383.996094 384 C 386.433594 384 388.867188 383.9375 391.300781 383.820312 C 393.734375 383.699219 396.160156 383.519531 398.585938 383.28125 C 401.011719 383.042969 403.425781 382.746094 405.835938 382.386719 C 408.246094 382.03125 410.644531 381.613281 413.035156 381.136719 C 415.425781 380.664062 417.800781 380.128906 420.164062 379.539062 C 422.527344 378.945312 424.875 378.296875 427.207031 377.589844 C 429.535156 376.882812 431.847656 376.117188 434.140625 375.296875 C 436.4375 374.476562 438.707031 373.601562 440.957031 372.667969 C 443.210938 371.734375 445.4375 370.75 447.636719 369.707031 C 449.839844 368.664062 452.015625 367.570312 454.164062 366.421875 C 456.3125 365.273438 458.429688 364.074219 460.519531 362.820312 C 462.609375 361.570312 464.667969 360.265625 466.691406 358.914062 C 468.71875 357.558594 470.710938 356.15625 472.667969 354.707031 C 474.625 353.253906 476.542969 351.757812 478.425781 350.210938 C 480.308594 348.664062 482.152344 347.074219 483.957031 345.4375 C 485.761719 343.804688 487.527344 342.125 489.25 340.402344 C 490.972656 338.679688 492.652344 336.914062 494.285156 335.109375 C 495.921875 333.304688 497.515625 331.460938 499.058594 329.578125 C 500.605469 327.695312 502.101562 325.773438 503.554688 323.816406 C 505.003906 321.863281 506.40625 319.871094 507.761719 317.84375 C 509.113281 315.820312 510.417969 313.761719 511.667969 311.671875 C 512.921875 309.582031 514.121094 307.464844 515.269531 305.316406 C 516.417969 303.167969 517.515625 300.992188 518.554688 298.789062 C 519.597656 296.585938 520.582031 294.363281 521.515625 292.109375 C 522.449219 289.859375 523.324219 287.589844 524.144531 285.292969 C 524.964844 283 525.730469 280.6875 526.4375 278.355469 C 527.144531 276.027344 527.792969 273.679688 528.386719 271.316406 C 528.976562 268.953125 529.511719 266.578125 529.988281 264.1875 C 530.460938 261.796875 530.878906 259.398438 531.234375 256.988281 C 531.59375 254.578125 531.890625 252.164062 532.128906 249.738281 C 532.367188 247.3125 532.546875 244.886719 532.667969 242.453125 C 532.785156 240.019531 532.847656 237.585938 532.847656 235.148438 C 532.847656 232.710938 532.785156 230.277344 532.667969 227.84375 C 532.546875 225.410156 532.367188 222.984375 532.128906 220.558594 C 531.890625 218.132812 531.59375 215.71875 531.234375 213.308594 C 530.878906 210.898438 530.460938 208.5 529.988281 206.109375 C 529.511719 203.71875 528.976562 201.34375 528.386719 198.980469 C 527.792969 196.617188 527.144531 194.269531 526.4375 191.941406 C 525.730469 189.609375 524.964844 187.296875 524.144531 185.003906 C 523.324219 182.707031 522.449219 180.4375 521.515625 178.1875 C 520.582031 175.933594 519.597656 173.707031 518.554688 171.507812 C 517.515625 169.304688 516.417969 167.128906 515.269531 164.980469 C 514.121094 162.832031 512.921875 160.714844 511.667969 158.625 C 510.417969 156.535156 509.113281 154.476562 507.761719 152.453125 C 506.40625 150.425781 505.003906 148.433594 503.554688 146.476562 C 502.101562 144.523438 500.605469 142.601562 499.058594 140.71875 C 497.515625 138.835938 495.921875 136.992188 494.285156 135.1875 C 492.652344 133.382812 490.972656 131.617188 489.25 129.894531 C 487.527344 128.171875 485.761719 126.492188 483.957031 124.859375 C 482.152344 123.222656 480.308594 121.632812 478.425781 120.085938 C 476.542969 118.539062 474.621094 117.042969 472.667969 115.589844 C 470.710938 114.140625 468.71875 112.738281 466.691406 111.382812 C 464.667969 110.03125 462.609375 108.726562 460.519531 107.476562 C 458.429688 106.222656 456.3125 105.023438 454.164062 103.875 C 452.015625 102.726562 449.839844 101.632812 447.636719 100.589844 C 445.4375 99.546875 443.210938 98.5625 440.957031 97.628906 C 438.707031 96.695312 436.4375 95.820312 434.140625 95 C 431.847656 94.179688 429.535156 93.414062 427.207031 92.707031 C 424.875 92 422.527344 91.351562 420.164062 90.757812 C 417.800781 90.167969 415.425781 89.632812 413.035156 89.160156 C 410.644531 88.683594 408.246094 88.265625 405.835938 87.910156 C 403.425781 87.550781 401.011719 87.253906 398.585938 87.015625 C 396.160156 86.777344 393.734375 86.597656 391.300781 86.476562 C 388.867188 86.359375 386.433594 86.296875 383.996094 86.296875 C 381.558594 86.296875 379.125 86.359375 376.691406 86.476562 C 374.257812 86.597656 371.832031 86.777344 369.40625 87.015625 C 366.980469 87.253906 364.566406 87.550781 362.15625 87.910156 C 359.746094 88.265625 357.347656 88.683594 354.957031 89.160156 C 352.566406 89.632812 350.191406 90.167969 347.828125 90.757812 C 345.464844 91.351562 343.117188 92 340.789062 92.707031 C 338.457031 93.414062 336.144531 94.179688 333.851562 95 C 331.558594 95.820312 329.285156 96.695312 327.035156 97.628906 C 324.785156 98.5625 322.558594 99.546875 320.355469 100.589844 C 318.152344 101.632812 315.976562 102.726562 313.828125 103.875 C 311.679688 105.023438 309.5625 106.222656 307.472656 107.476562 C 305.382812 108.726562 303.324219 110.03125 301.300781 111.382812 C 299.273438 112.738281 297.28125 114.140625 295.328125 115.589844 C 293.371094 117.042969 291.449219 118.539062 289.566406 120.085938 C 287.683594 121.632812 285.839844 123.222656 284.035156 124.859375 C 282.230469 126.492188 280.464844 128.171875 278.742188 129.894531 C 277.019531 131.617188 275.339844 133.382812 273.707031 135.1875 C 272.070312 136.992188 270.480469 138.835938 268.933594 140.71875 C 267.386719 142.601562 265.890625 144.523438 264.4375 146.476562 C 262.988281 148.433594 261.585938 150.425781 260.230469 152.453125 C 258.878906 154.476562 257.574219 156.535156 256.324219 158.625 C 255.070312 160.714844 253.871094 162.832031 252.722656 164.980469 C 251.574219 167.128906 250.480469 169.304688 249.4375 171.507812 C 248.394531 173.707031 247.410156 175.933594 246.476562 178.1875 C 245.542969 180.4375 244.667969 182.707031 243.847656 185.003906 C 243.027344 187.296875 242.261719 189.609375 241.554688 191.941406 C 240.847656 194.269531 240.199219 196.617188 239.605469 198.980469 C 239.015625 201.34375 238.480469 203.71875 238.007812 206.109375 C 237.53125 208.5 237.113281 210.898438 236.757812 213.308594 C 236.398438 215.71875 236.101562 218.132812 235.863281 220.558594 C 235.625 222.984375 235.445312 225.410156 235.324219 227.84375 C 235.207031 230.277344 235.144531 232.710938 235.144531 235.148438 C 235.148438 237.582031 235.210938 240.015625 235.332031 242.449219 C 235.457031 244.882812 235.636719 247.308594 235.878906 249.734375 C 236.121094 252.15625 236.421875 254.570312 236.78125 256.980469 C 237.140625 259.390625 237.558594 261.789062 238.035156 264.175781 C 238.511719 266.5625 239.046875 268.9375 239.640625 271.300781 C 240.234375 273.660156 240.886719 276.007812 241.59375 278.335938 C 242.304688 280.667969 243.070312 282.980469 243.890625 285.269531 C 244.714844 287.5625 245.589844 289.835938 246.523438 292.082031 C 247.457031 294.332031 248.445312 296.558594 249.488281 298.757812 C 250.53125 300.960938 251.625 303.132812 252.773438 305.28125 C 253.921875 307.429688 255.125 309.546875 256.375 311.632812 C 257.628906 313.722656 258.933594 315.777344 260.285156 317.804688 C 261.640625 319.828125 263.042969 321.816406 264.492188 323.773438 C 265.945312 325.730469 267.441406 327.648438 268.988281 329.53125 C 270.53125 331.414062 272.121094 333.257812 273.757812 335.0625 C 275.394531 336.863281 277.074219 338.628906 278.792969 340.351562 C 280.515625 342.070312 282.28125 343.75 284.085938 345.386719 C 285.886719 347.023438 287.730469 348.613281 289.613281 350.15625 C 291.496094 351.703125 293.414062 353.199219 295.371094 354.652344 C 297.328125 356.101562 299.316406 357.503906 301.339844 358.859375 C 303.367188 360.210938 305.421875 361.515625 307.511719 362.769531 C 309.597656 364.019531 311.714844 365.222656 313.863281 366.371094 C 316.011719 367.519531 318.183594 368.617188 320.386719 369.65625 C 322.585938 370.699219 324.8125 371.6875 327.0625 372.621094 C 329.3125 373.554688 331.582031 374.433594 333.875 375.253906 C 336.167969 376.074219 338.476562 376.839844 340.808594 377.550781 C 343.136719 378.257812 345.484375 378.910156 347.84375 379.503906 C 350.207031 380.097656 352.582031 380.632812 354.96875 381.109375 C 357.359375 381.585938 359.753906 382.003906 362.164062 382.363281 C 364.574219 382.722656 366.988281 383.023438 369.410156 383.265625 C 371.835938 383.507812 374.261719 383.6875 376.695312 383.8125 C 379.128906 383.933594 381.5625 383.996094 383.996094 384 Z M 383.996094 116.070312 C 385.945312 116.070312 387.894531 116.117188 389.839844 116.210938 C 391.785156 116.308594 393.730469 116.449219 395.667969 116.640625 C 397.609375 116.832031 399.542969 117.070312 401.46875 117.355469 C 403.398438 117.644531 405.316406 117.976562 407.226562 118.355469 C 409.140625 118.738281 411.039062 119.164062 412.929688 119.636719 C 414.820312 120.109375 416.699219 120.628906 418.5625 121.195312 C 420.429688 121.761719 422.277344 122.371094 424.113281 123.027344 C 425.949219 123.6875 427.765625 124.386719 429.566406 125.132812 C 431.367188 125.878906 433.148438 126.667969 434.910156 127.5 C 436.671875 128.335938 438.410156 129.210938 440.128906 130.128906 C 441.847656 131.046875 443.542969 132.007812 445.214844 133.011719 C 446.886719 134.011719 448.535156 135.054688 450.152344 136.136719 C 451.773438 137.21875 453.367188 138.339844 454.933594 139.503906 C 456.496094 140.664062 458.035156 141.863281 459.539062 143.097656 C 461.046875 144.335938 462.523438 145.605469 463.964844 146.914062 C 465.410156 148.226562 466.820312 149.566406 468.199219 150.945312 C 469.578125 152.324219 470.921875 153.734375 472.230469 155.179688 C 473.539062 156.625 474.808594 158.097656 476.046875 159.605469 C 477.28125 161.109375 478.480469 162.648438 479.640625 164.210938 C 480.804688 165.777344 481.925781 167.371094 483.007812 168.992188 C 484.089844 170.613281 485.132812 172.257812 486.132812 173.929688 C 487.136719 175.601562 488.097656 177.296875 489.015625 179.015625 C 489.933594 180.734375 490.808594 182.472656 491.644531 184.234375 C 492.476562 185.996094 493.265625 187.777344 494.011719 189.578125 C 494.757812 191.378906 495.457031 193.195312 496.117188 195.03125 C 496.773438 196.867188 497.382812 198.714844 497.949219 200.582031 C 498.515625 202.445312 499.035156 204.324219 499.507812 206.214844 C 499.980469 208.105469 500.40625 210.003906 500.789062 211.917969 C 501.167969 213.828125 501.5 215.746094 501.789062 217.675781 C 502.074219 219.601562 502.3125 221.535156 502.503906 223.476562 C 502.695312 225.414062 502.835938 227.359375 502.933594 229.304688 C 503.027344 231.25 503.078125 233.199219 503.078125 235.148438 C 503.078125 237.097656 503.027344 239.042969 502.933594 240.992188 C 502.835938 242.9375 502.695312 244.882812 502.503906 246.820312 C 502.3125 248.761719 502.074219 250.691406 501.789062 252.621094 C 501.5 254.550781 501.167969 256.46875 500.789062 258.378906 C 500.40625 260.292969 499.980469 262.191406 499.507812 264.082031 C 499.035156 265.972656 498.515625 267.851562 497.949219 269.714844 C 497.382812 271.582031 496.773438 273.429688 496.117188 275.265625 C 495.457031 277.101562 494.757812 278.917969 494.011719 280.71875 C 493.265625 282.519531 492.476562 284.300781 491.644531 286.0625 C 490.808594 287.824219 489.933594 289.5625 489.015625 291.28125 C 488.097656 293 487.136719 294.695312 486.132812 296.367188 C 485.132812 298.039062 484.089844 299.683594 483.007812 301.304688 C 481.925781 302.925781 480.804688 304.519531 479.640625 306.085938 C 478.480469 307.648438 477.28125 309.183594 476.046875 310.691406 C 474.808594 312.199219 473.539062 313.671875 472.230469 315.117188 C 470.921875 316.5625 469.578125 317.972656 468.199219 319.351562 C 466.820312 320.730469 465.410156 322.070312 463.964844 323.382812 C 462.523438 324.691406 461.046875 325.960938 459.539062 327.199219 C 458.035156 328.433594 456.496094 329.632812 454.933594 330.792969 C 453.367188 331.957031 451.773438 333.078125 450.152344 334.160156 C 448.535156 335.242188 446.886719 336.285156 445.214844 337.285156 C 443.542969 338.289062 441.847656 339.25 440.128906 340.167969 C 438.410156 341.085938 436.671875 341.960938 434.910156 342.796875 C 433.148438 343.628906 431.367188 344.417969 429.566406 345.164062 C 427.765625 345.910156 425.949219 346.609375 424.113281 347.265625 C 422.277344 347.925781 420.429688 348.535156 418.5625 349.101562 C 416.699219 349.667969 414.820312 350.1875 412.929688 350.660156 C 411.039062 351.132812 409.140625 351.558594 407.226562 351.941406 C 405.316406 352.320312 403.398438 352.652344 401.46875 352.941406 C 399.542969 353.226562 397.609375 353.464844 395.667969 353.65625 C 393.730469 353.847656 391.785156 353.988281 389.839844 354.085938 C 387.894531 354.179688 385.945312 354.226562 383.996094 354.226562 C 382.046875 354.226562 380.101562 354.179688 378.152344 354.085938 C 376.207031 353.988281 374.265625 353.847656 372.324219 353.65625 C 370.386719 353.464844 368.453125 353.226562 366.523438 352.941406 C 364.597656 352.652344 362.675781 352.320312 360.765625 351.941406 C 358.855469 351.558594 356.953125 351.132812 355.0625 350.660156 C 353.171875 350.1875 351.292969 349.667969 349.429688 349.101562 C 347.5625 348.535156 345.714844 347.925781 343.878906 347.265625 C 342.042969 346.609375 340.226562 345.910156 338.425781 345.164062 C 336.625 344.417969 334.84375 343.628906 333.082031 342.796875 C 331.320312 341.960938 329.582031 341.085938 327.863281 340.167969 C 326.144531 339.25 324.449219 338.289062 322.777344 337.285156 C 321.105469 336.285156 319.460938 335.242188 317.839844 334.160156 C 316.21875 333.078125 314.625 331.957031 313.058594 330.792969 C 311.496094 329.632812 309.960938 328.433594 308.453125 327.199219 C 306.945312 325.960938 305.472656 324.691406 304.027344 323.382812 C 302.582031 322.070312 301.171875 320.730469 299.792969 319.351562 C 298.417969 317.972656 297.074219 316.5625 295.765625 315.117188 C 294.457031 313.671875 293.183594 312.199219 291.945312 310.691406 C 290.710938 309.183594 289.511719 307.648438 288.351562 306.085938 C 287.191406 304.519531 286.066406 302.925781 284.984375 301.304688 C 283.902344 299.683594 282.859375 298.039062 281.859375 296.367188 C 280.855469 294.695312 279.894531 293 278.976562 291.28125 C 278.058594 289.5625 277.183594 287.824219 276.347656 286.0625 C 275.515625 284.300781 274.726562 282.519531 273.980469 280.71875 C 273.234375 278.917969 272.535156 277.101562 271.878906 275.265625 C 271.222656 273.429688 270.609375 271.582031 270.042969 269.714844 C 269.476562 267.851562 268.957031 265.972656 268.484375 264.082031 C 268.011719 262.191406 267.585938 260.292969 267.203125 258.378906 C 266.824219 256.46875 266.492188 254.550781 266.207031 252.621094 C 265.917969 250.695312 265.679688 248.761719 265.488281 246.820312 C 265.296875 244.882812 265.15625 242.9375 265.058594 240.992188 C 264.964844 239.042969 264.917969 237.097656 264.917969 235.148438 C 264.917969 233.199219 264.96875 231.253906 265.066406 229.308594 C 265.164062 227.359375 265.308594 225.417969 265.5 223.480469 C 265.691406 221.542969 265.933594 219.609375 266.21875 217.679688 C 266.507812 215.753906 266.84375 213.835938 267.222656 211.925781 C 267.605469 210.015625 268.035156 208.113281 268.507812 206.226562 C 268.984375 204.335938 269.503906 202.457031 270.070312 200.59375 C 270.636719 198.730469 271.25 196.882812 271.90625 195.046875 C 272.5625 193.214844 273.265625 191.394531 274.011719 189.597656 C 274.757812 187.796875 275.546875 186.015625 276.382812 184.253906 C 277.214844 182.496094 278.09375 180.753906 279.011719 179.039062 C 279.929688 177.320312 280.890625 175.625 281.894531 173.953125 C 282.894531 172.285156 283.9375 170.636719 285.019531 169.019531 C 286.101562 167.398438 287.226562 165.808594 288.386719 164.242188 C 289.546875 162.675781 290.746094 161.140625 291.980469 159.636719 C 293.21875 158.128906 294.492188 156.65625 295.800781 155.210938 C 297.105469 153.769531 298.449219 152.359375 299.828125 150.980469 C 301.207031 149.601562 302.617188 148.257812 304.058594 146.949219 C 305.503906 145.640625 306.976562 144.371094 308.484375 143.132812 C 309.988281 141.898438 311.523438 140.699219 313.089844 139.539062 C 314.65625 138.378906 316.246094 137.253906 317.867188 136.171875 C 319.484375 135.089844 321.132812 134.046875 322.800781 133.046875 C 324.472656 132.042969 326.167969 131.082031 327.886719 130.164062 C 329.601562 129.246094 331.34375 128.367188 333.105469 127.535156 C 334.863281 126.699219 336.644531 125.910156 338.445312 125.164062 C 340.246094 124.417969 342.0625 123.714844 343.894531 123.058594 C 345.730469 122.402344 347.578125 121.789062 349.441406 121.222656 C 351.304688 120.65625 353.183594 120.132812 355.074219 119.660156 C 356.960938 119.183594 358.863281 118.757812 360.773438 118.375 C 362.683594 117.996094 364.601562 117.660156 366.53125 117.371094 C 368.457031 117.085938 370.390625 116.84375 372.328125 116.652344 C 374.265625 116.460938 376.210938 116.316406 378.15625 116.21875 C 380.101562 116.121094 382.046875 116.070312 383.996094 116.070312 Z M 383.996094 116.070312 " fill-opacity="1" fill-rule="nonzero"/></g></svg>